<svg width="94" height="92" viewBox="0 0 94 92" fill="none" xmlns="http://www.w3.org/2000/svg">
<path fill-rule="evenodd" clip-rule="evenodd" d="M57.5851 33.3112C63.7359 39.462 63.7359 49.4343 57.5851 55.5851C51.4344 61.7358 41.462 61.7358 35.3113 55.5851C29.1605 49.4343 29.1605 39.462 35.3113 33.3112C41.462 27.1605 51.4344 27.1605 57.5851 33.3112ZM54.7214 36.175C59.2905 40.7441 59.2905 48.1522 54.7214 52.7213C50.1522 57.2904 42.7442 57.2904 38.1751 52.7213C33.6059 48.1522 33.6059 40.7441 38.1751 36.175C42.7442 31.6059 50.1522 31.6059 54.7214 36.175Z" fill="white"/>
<path fill-rule="evenodd" clip-rule="evenodd" d="M40.3647 13.5143L36.5583 11.8596C34.0153 10.7541 31.0549 11.3162 29.0942 13.277L15.2773 27.0939C13.3166 29.0546 12.7544 32.015 13.8599 34.5579L15.5147 38.3643C15.8832 39.212 15.6958 40.1988 15.0422 40.8524L5.08246 50.8121C1.56774 54.3268 1.56774 60.0253 5.08246 63.54L30.5383 88.9959C34.053 92.5106 39.7515 92.5106 43.2662 88.9959L90.9959 41.2662C94.5107 37.7515 94.5107 32.053 90.9959 28.5383L65.5401 3.08241C62.0254 -0.432309 56.3269 -0.432306 52.8122 3.08241L42.8527 13.0419C42.1991 13.6954 41.2123 13.8828 40.3647 13.5143ZM17.9868 32.7639C17.6183 31.9162 17.8057 30.9294 18.4593 30.2758L32.2762 16.4589C32.9298 15.8054 33.9165 15.618 34.7642 15.9865L38.5706 17.6412C41.1136 18.7467 44.074 18.1846 46.0347 16.2238L55.9941 6.26439C57.7515 4.50704 60.6007 4.50703 62.3581 6.26439L87.814 31.7202C89.5713 33.4776 89.5713 36.3268 87.814 38.0842L40.0842 85.8139C38.3269 87.5713 35.4776 87.5713 33.7203 85.8139L8.26444 60.3581C6.50708 58.6007 6.50708 55.7515 8.26444 53.9941L18.2242 44.0344C20.1849 42.0736 20.7471 39.1133 19.6416 36.5703L17.9868 32.7639Z" fill="white"/>
<path d="M0.883641 46.86C0.136763 46.1132 0.136763 44.9022 0.883641 44.1554L6.30182 38.7372C7.04869 37.9903 8.25962 37.9903 9.0065 38.7372C9.75338 39.4841 9.75338 40.695 9.0065 41.4419L3.58833 46.86C2.84145 47.6069 1.63052 47.6069 0.883641 46.86Z" fill="white"/>
</svg>
