<svg width="42" height="42" viewBox="0 0 42 42" fill="none" xmlns="http://www.w3.org/2000/svg">
<path d="M16.6444 1.1199C10.92 2.33323 5.44441 6.59546 2.8933 11.8221C-0.0622532 17.8577 -0.0622532 24.1421 2.8933 30.1777C4.69775 33.8799 8.11997 37.3021 11.8222 39.1066C17.8577 42.0621 24.1422 42.0621 30.1777 39.1066C35.4977 36.5244 39.6978 31.0488 40.88 25.1377C41.5022 22.0888 41.5022 19.8799 40.88 16.8932C38.5777 5.78657 27.8444 -1.21343 16.6444 1.1199ZM24.8577 4.1999C28.1244 4.97768 30.7066 6.4399 33.1333 8.86657C35.4044 11.1377 37.2089 14.1866 37.5511 16.3643C37.8933 18.3866 37.0844 18.4799 31.8266 16.9866C23.4577 14.6221 18.5422 14.7155 8.46219 17.391C6.96886 17.7955 5.53775 18.0132 5.07108 17.8888C4.35552 17.7332 4.2933 17.6088 4.44886 16.4266C4.91552 12.8488 9.14664 7.62212 13.0977 5.66212C16.9555 3.79546 20.9689 3.29768 24.8577 4.1999ZM23.0222 18.0132C23.4577 18.2932 24.0489 19.071 24.36 19.6932C24.8266 20.6577 24.8889 21.031 24.6089 21.871C24.1733 23.1155 23.24 24.0799 21.9333 24.5777C21.2177 24.8577 20.7511 24.8266 19.6622 24.391C18.5422 23.9866 18.1689 23.6444 17.6711 22.4932C16.9866 20.9066 17.2355 19.5688 18.4489 18.4177C19.9111 17.0488 21.4666 16.8932 23.0222 18.0132ZM9.51997 24.4221C12.2266 25.3243 13.8755 26.3199 15.0577 27.6888C16.9866 30.0221 18.5422 34.3466 18.1689 36.5244L17.9822 37.7066L16.5822 37.551C13.4089 37.2088 8.89775 33.9732 6.56441 30.3955C4.91552 27.9377 3.82664 24.7332 4.35552 24.111C4.91552 23.4266 6.90664 23.551 9.51997 24.4221ZM37.8622 24.0488C38.1422 24.3288 36.8044 28.1866 35.9022 29.7421C33.9422 33.071 30.52 35.9021 26.7866 37.2399C24.8889 37.9555 24.7955 37.9555 24.2044 37.4266C23.6755 36.9599 23.6133 36.6177 23.7689 35.1866C24.0177 33.0088 25.5733 29.3377 26.88 27.8132C28.7777 25.6044 33.4444 23.551 36.1822 23.7688C36.9911 23.831 37.7378 23.9555 37.8622 24.0488Z" fill="#022E2F"/>
</svg>
