<svg width="20" height="20" viewBox="0 0 20 20" fill="none" xmlns="http://www.w3.org/2000/svg">
<path d="M16.6667 6.87496V15C16.6667 17.5 15.175 18.3333 13.3333 18.3333H6.66668C4.82501 18.3333 3.33334 17.5 3.33334 15V6.87496C3.33334 4.16663 4.82501 3.54163 6.66668 3.54163C6.66668 4.05829 6.87499 4.52496 7.21665 4.86662C7.55832 5.20829 8.02501 5.41663 8.54168 5.41663H11.4583C12.4917 5.41663 13.3333 4.57496 13.3333 3.54163C15.175 3.54163 16.6667 4.16663 16.6667 6.87496Z" stroke="#292D32" stroke-linecap="round" stroke-linejoin="round"/>
<path d="M13.3333 3.54163C13.3333 4.57496 12.4917 5.41663 11.4583 5.41663H8.54166C8.02499 5.41663 7.5583 5.20829 7.21663 4.86662C6.87497 4.52496 6.66666 4.05829 6.66666 3.54163C6.66666 2.50829 7.50832 1.66663 8.54166 1.66663H11.4583C11.975 1.66663 12.4417 1.87496 12.7833 2.21663C13.125 2.5583 13.3333 3.02496 13.3333 3.54163Z" stroke="#292D32" stroke-linecap="round" stroke-linejoin="round"/>
<path d="M6.66666 10.8334H9.99999" stroke="#292D32" stroke-linecap="round" stroke-linejoin="round"/>
<path d="M6.66666 14.1666H13.3333" stroke="#292D32" stroke-linecap="round" stroke-linejoin="round"/>
</svg>
