<svg width="16" height="18" viewBox="0 0 16 18" fill="none" xmlns="http://www.w3.org/2000/svg">
<path d="M6.30241 15.0231C6.719 14.9349 9.25788 14.9349 9.67448 15.0231C10.0306 15.1053 10.4157 15.2978 10.4157 15.7174C10.395 16.1169 10.1604 16.471 9.83659 16.6959C9.4167 17.0232 8.92397 17.2306 8.40885 17.3053C8.12395 17.3422 7.84397 17.3431 7.56901 17.3053C7.05303 17.2306 6.56035 17.0231 6.14127 16.6949C5.81663 16.4709 5.58193 16.1169 5.5612 15.7174C5.5612 15.2978 5.94633 15.1053 6.30241 15.0231ZM8.03776 0.666626C9.77119 0.66665 11.5416 1.48944 12.5934 2.85413C13.2759 3.73286 13.5895 4.61053 13.5895 5.97522V6.33069C13.5896 7.37697 13.8657 7.99397 14.4743 8.70471C14.9355 9.22833 15.0836 9.90034 15.0837 10.6295C15.0837 11.358 14.8444 12.0504 14.3649 12.6119C13.7372 13.285 12.8514 13.7139 11.9479 13.7887C10.6386 13.9003 9.3282 13.9947 8.00065 13.9948C6.67226 13.9948 5.36273 13.9381 4.05338 13.7887C3.14906 13.714 2.26334 13.2849 1.63639 12.6119C1.15685 12.0504 0.916664 11.358 0.916664 10.6295C0.916726 9.90044 1.06482 9.22829 1.52506 8.70471C2.15276 7.99393 2.41171 7.37702 2.41178 6.33069V5.97522C2.41178 4.57359 2.7614 3.65661 3.48112 2.7594C4.5512 1.45117 6.2667 0.666626 7.96354 0.666626H8.03776Z" fill="#475467"/>
</svg>
