<svg width="60" height="60" viewBox="0 0 60 60" fill="none" xmlns="http://www.w3.org/2000/svg">
<path fill-rule="evenodd" clip-rule="evenodd" d="M37 31.2499C37 35.1159 33.866 38.2499 30 38.2499C26.134 38.2499 23 35.1159 23 31.2499C23 27.3839 26.134 24.2499 30 24.2499C33.866 24.2499 37 27.3839 37 31.2499ZM35.2 31.2499C35.2 34.1218 32.8719 36.4499 30 36.4499C27.1281 36.4499 24.8 34.1218 24.8 31.2499C24.8 28.3781 27.1281 26.0499 30 26.0499C32.8719 26.0499 35.2 28.3781 35.2 31.2499Z" fill="white"/>
<path fill-rule="evenodd" clip-rule="evenodd" d="M37.8097 19.6165L37.1335 17.9002C36.6817 16.7536 35.5747 15.9999 34.3423 15.9999H25.6579C24.4255 15.9999 23.3184 16.7536 22.8667 17.9002L22.1905 19.6165C22.0399 19.9987 21.6709 20.2499 21.2601 20.2499H15C12.7909 20.2499 11 22.0408 11 24.2499V40.2499C11 42.4591 12.7909 44.2499 15 44.2499H45C47.2091 44.2499 49 42.4591 49 40.2499V24.2499C49 22.0408 47.2091 20.2499 45 20.2499H38.7401C38.3293 20.2499 37.9603 19.9987 37.8097 19.6165ZM24.7275 18.6334C24.8781 18.2512 25.2471 17.9999 25.6579 17.9999H34.3423C34.7531 17.9999 35.1221 18.2512 35.2727 18.6334L35.9489 20.3496C36.4007 21.4963 37.5077 22.2499 38.7401 22.2499H45C46.1046 22.2499 47 23.1454 47 24.2499V40.2499C47 41.3545 46.1046 42.2499 45 42.2499H15C13.8954 42.2499 13 41.3545 13 40.2499V24.2499C13 23.1454 13.8954 22.2499 15 22.2499H21.2601C22.4925 22.2499 23.5995 21.4963 24.0513 20.3496L24.7275 18.6334Z" fill="white"/>
<path d="M14.9225 17.6884C14.9225 17.2189 15.303 16.8384 15.7725 16.8384H19.178C19.6474 16.8384 20.028 17.2189 20.028 17.6884C20.028 18.1578 19.6474 18.5384 19.178 18.5384H15.7725C15.303 18.5384 14.9225 18.1578 14.9225 17.6884Z" fill="white"/>
</svg>
